<svg version="1.1" xmlns="http://www.w3.org/2000/svg"><g font-family="Courier" transform="translate(0,300) scale(200)"><text font-size="1" x="1.26" y="-0.19">V</text><text font-size="1" x="1.86" y="-0.19">I</text><text font-size="1" x="2.46" y="-0.19">E</text><text font-size="1" x="3.06" y="-0.19">N</text><text font-size="1" x="3.66" y="-0.19">T</text><text font-size="1" x="4.26" y="-0.19">O</text><text font-size="0.7" x="4.86" y="-0.64">F</text><text font-size="0.7" x="5.28" y="-0.64">U</text><text font-size="0.7" x="5.7" y="-0.64">E</text><text font-size="0.7" x="6.12" y="-0.64">R</text><text font-size="0.7" x="6.54" y="-0.64">T</text><text font-size="0.7" x="6.96" y="-0.64">E</text><text font-size="1" x="0.0" y="0.72">V</text><text font-size="1" x="0.6" y="0.72">E</text><text font-size="1" x="1.2" y="0.72">L</text><text font-size="1" x="1.8" y="0.72">E</text><text font-size="1" x="2.4" y="0.72">R</text><text font-size="1" x="3.0" y="0.72">O</text><text font-size="0.7" x="3.6" y="0.97">E</text><text font-size="0.7" x="4.02" y="0.97">N</text><text font-size="0.7" x="4.44" y="0.97">+</text><text font-size="0.7" x="4.86" y="0.97">P</text><text font-size="0.7" x="5.28" y="0.97">R</text><text font-size="0.7" x="5.7" y="0.97">O</text><text font-size="0.7" x="6.12" y="0.97">B</text><text font-size="0.7" x="6.54" y="0.97">L</text><text font-size="0.7" x="6.96" y="0.97">E</text><text font-size="0.7" x="7.38" y="0.97">M</text><text font-size="0.7" x="7.8" y="0.97">A</text><text font-size="0.7" x="8.22" y="0.97">S</text><line stroke="black" stroke-width="0.03" x1="0" x2="8.64" y1="0.0" y2="0.0" /></g></svg>